<?xml version="1.0" standalone="no"?><!DOCTYPE svg PUBLIC "-//W3C//DTD SVG 1.1//EN" "http://www.w3.org/Graphics/SVG/1.1/DTD/svg11.dtd"><svg t="1505188908549" class="icon" style="" viewBox="0 0 1024 1024" version="1.1" xmlns="http://www.w3.org/2000/svg" p-id="4043" xmlns:xlink="http://www.w3.org/1999/xlink" width="200" height="200"><defs><style type="text/css"></style></defs><path d="M511.158272 0.288768C229.074944 0.288768 0.448512 228.913152 0.448512 511.039488c0 282.124288 228.626432 510.752768 510.711808 510.752768C793.247744 1021.792256 1021.952 793.163776 1021.952 511.039488 1021.952 228.913152 793.247744 0.288768 511.158272 0.288768zM439.08096 716.980224c-16.904192 0-29.58336-12.67712-29.58336-29.58336 0-16.908288 14.792704-29.58336 29.58336-29.58336 16.90624 0 29.587456 14.792704 29.587456 29.58336C468.668416 704.301056 453.873664 716.980224 439.08096 716.980224zM644.061184 716.980224c-16.90624 0-29.585408-12.67712-29.585408-29.58336 0-16.908288 14.792704-29.58336 29.585408-29.58336 16.90624 0 29.585408 14.792704 29.585408 29.58336C673.64864 704.301056 658.855936 716.980224 644.061184 716.980224zM675.760128 641.024 434.855936 641.024c-21.131264 0-40.15104-21.190656-42.264576-42.32192l-23.246848-166.97344-14.792704-82.794496c-2.111488-6.340608-8.452096-13.062144-14.792704-13.062144l-19.019776 0c-8.452096 0-14.792704-5.883904-14.792704-14.336s6.340608-14.336 14.792704-14.336l27.47392 0c21.129216 0 40.15104 16.816128 42.262528 37.947392l12.681216 82.37056 25.356288 166.477824c2.113536 6.340608 8.452096 12.214272 14.792704 12.214272l232.450048 0c6.340608 0 12.679168 8.955904 14.792704 17.408C690.552832 632.068096 684.214272 641.024 675.760128 641.024zM715.90912 402.11456l-23.2448 124.678144c-4.225024 19.017728-21.131264 35.926016-42.264576 35.926016l-188.073984 14.792704c-8.454144 0-12.681216-8.452096-12.681216-14.792704 0-4.227072 2.113536-12.679168 4.227072-14.794752 4.227072-2.113536 6.340608-4.225024 10.565632-4.225024l181.735424-14.792704c6.340608 0 14.792704-6.340608 14.792704-12.679168l23.246848-114.112512c0-6.340608-2.113536-10.625024-4.227072-14.852096-2.111488-2.113536-6.33856-4.286464-8.452096-4.286464L430.630912 382.976c-8.452096 0-14.792704-10.043392-14.792704-16.384s6.340608-16.384 14.792704-16.384l247.2448 0c10.565632 0 21.131264 5.875712 27.469824 14.331904C713.79968 375.103488 718.024704 387.321856 715.90912 402.11456z" p-id="4044"></path></svg>