<?xml version="1.0" standalone="no"?><!DOCTYPE svg PUBLIC "-//W3C//DTD SVG 1.1//EN" "http://www.w3.org/Graphics/SVG/1.1/DTD/svg11.dtd"><svg t="1505188948010" class="icon" style="" viewBox="0 0 1024 1024" version="1.1" xmlns="http://www.w3.org/2000/svg" p-id="4862" xmlns:xlink="http://www.w3.org/1999/xlink" width="200" height="200"><defs><style type="text/css"></style></defs><path d="M512 1018.067636C792.819656 1018.067636 1020.468966 790.418326 1020.468966 509.598671 1020.468966 228.779016 792.819656 1.129706 512 1.129706 231.180344 1.129706 3.531034 228.779016 3.531034 509.598671 3.531034 790.418326 231.180344 1018.067636 512 1018.067636L512 1018.067636 512 1018.067636ZM722.607295 778.133843 722.607295 705.326326 795.259572 705.326326 795.259572 720.995151 795.259572 758.794593C793.501463 768.464218 787.348063 775.496669 777.678438 778.133843L722.607295 778.133843 722.607295 778.133843 722.607295 778.133843ZM628.238801 640.313572 585.16502 640.313572 584.285964 778.133843 557.914262 778.133843C537.695958 778.133843 541.212185 741.213459 541.212185 711.325527 541.212185 711.325527 541.212185 550.807488 541.212185 538.135006 541.212185 520.220541 562.309544 524.045979 584.285962 524.045979L700.628277 524.045979 700.628277 618.48259 751.306731 618.48259 751.306731 524.045979C751.306731 524.045979 794.380514 521.449277 795.259572 542.546639L795.259586 683.848796 628.238801 683.848796 628.238801 640.313572 628.238801 640.313572 628.238801 640.313572ZM777.678438 488.045122 557.914262 488.045122C548.244638 488.045122 540.333128 480.133612 540.333128 470.463987L540.333128 250.699806C540.333128 241.030182 548.244638 233.118671 557.914262 233.118671L777.678438 233.118671C787.348063 233.118671 795.259572 241.030182 795.259572 250.699806L795.259572 470.463987C795.259572 480.133612 787.348063 488.045122 777.678438 488.045122L777.678438 488.045122 777.678438 488.045122 777.678438 488.045122ZM751.306738 277.071508 585.16502 277.071508C584.285964 277.071508 584.285964 277.950564 584.285964 279.708678L584.285964 444.971342 751.306738 444.971342 751.306738 277.071508 751.306738 277.071508 751.306738 277.071508 751.306738 277.071508ZM659.005784 322.782457C685.377485 317.508117 706.474846 335.968308 706.474846 359.70284 707.353902 391.348882 673.949748 408.930017 649.33616 395.744166 620.327288 380.800201 622.085402 329.814911 659.005784 322.782457L659.005784 322.782457 659.005784 322.782457 659.005784 322.782457ZM487.589726 778.133843 267.825548 778.133843C258.155924 778.133843 250.244414 770.222327 250.244414 760.552709L250.244414 540.788526C250.244414 531.118901 258.155924 523.20739 267.825548 523.20739L487.589726 523.20739C497.259349 523.20739 505.170859 531.118901 505.170859 540.788526L505.170859 760.552709C505.170859 770.222327 497.259349 778.133843 487.589726 778.133843L487.589726 778.133843 487.589726 778.133843 487.589726 778.133843ZM461.218024 567.160227 295.076306 567.160227C294.197249 567.160227 294.197249 568.039283 294.197249 569.797397L294.197249 735.06006 461.218024 735.06006 461.218024 567.160227 461.218024 567.160227 461.218024 567.160227 461.218024 567.160227ZM368.91707 612.871176C395.288771 607.596836 416.386132 626.057027 416.386132 649.791559 417.265189 681.437601 383.861033 699.018736 359.247445 685.832885 330.238574 670.88892 331.996688 619.903631 368.91707 612.871176L368.91707 612.871176 368.91707 612.871176 368.91707 612.871176ZM487.589726 488.045122 267.825548 488.045122C258.155924 488.045122 250.244414 480.133612 250.244414 470.463987L250.244414 250.699806C250.244414 241.030182 258.155924 233.118671 267.825548 233.118671L487.589726 233.118671C497.259349 233.118671 505.170859 241.030182 505.170859 250.699806L505.170859 470.463987C505.170859 480.133612 497.259349 488.045122 487.589726 488.045122L487.589726 488.045122 487.589726 488.045122 487.589726 488.045122ZM461.218024 277.071508 295.076306 277.071508C294.197249 277.071508 294.197249 277.950564 294.197249 279.708678L294.197249 444.971342 461.218024 444.971342 461.218024 277.071508 461.218024 277.071508 461.218024 277.071508 461.218024 277.071508ZM368.91707 322.782457C395.288771 317.508117 416.386132 335.968308 416.386132 359.70284 417.265189 391.348882 383.861033 408.930017 359.247445 395.744166 330.238574 380.800201 331.996688 329.814911 368.91707 322.782457L368.91707 322.782457 368.91707 322.782457 368.91707 322.782457ZM628.238799 778.133843 628.238799 705.581257 701.218266 705.581257 701.218266 778.133843 628.238799 778.133843 628.238799 778.133843 628.238799 778.133843Z" p-id="4863"></path></svg>